<mxfile host="app.diagrams.net" modified="2023-08-03T15:40:50.784Z" agent="Mozilla/5.0 (Windows NT 10.0; Win64; x64) AppleWebKit/537.36 (KHTML, like Gecko) Chrome/115.0.0.0 Safari/537.36" etag="xiM0agZOzq7sLKgfOVPR" version="21.6.6" type="device">
  <diagram name="Page-1" id="Ue9JSz3db-kJe1kkPnQE">
    <mxGraphModel dx="1235" dy="666" grid="1" gridSize="10" guides="1" tooltips="1" connect="1" arrows="1" fold="1" page="1" pageScale="1" pageWidth="850" pageHeight="1100" math="0" shadow="0">
      <root>
        <mxCell id="0" />
        <mxCell id="1" parent="0" />
        <mxCell id="Qb6nIVdXhHOiRRNpo8Cw-1" value="START" style="rounded=1;whiteSpace=wrap;html=1;" vertex="1" parent="1">
          <mxGeometry x="220" y="40" width="120" height="60" as="geometry" />
        </mxCell>
        <mxCell id="Qb6nIVdXhHOiRRNpo8Cw-2" value="STOP" style="rounded=1;whiteSpace=wrap;html=1;" vertex="1" parent="1">
          <mxGeometry x="230" y="470" width="120" height="60" as="geometry" />
        </mxCell>
        <mxCell id="Qb6nIVdXhHOiRRNpo8Cw-3" value="&quot;ENTER NUMBER&quot;" style="shape=document;whiteSpace=wrap;html=1;boundedLbl=1;" vertex="1" parent="1">
          <mxGeometry x="220" y="120" width="121" height="80" as="geometry" />
        </mxCell>
        <mxCell id="Qb6nIVdXhHOiRRNpo8Cw-4" value="x" style="shape=card;whiteSpace=wrap;html=1;" vertex="1" parent="1">
          <mxGeometry x="245" y="220" width="80" height="40" as="geometry" />
        </mxCell>
        <mxCell id="Qb6nIVdXhHOiRRNpo8Cw-8" style="edgeStyle=orthogonalEdgeStyle;rounded=0;orthogonalLoop=1;jettySize=auto;html=1;" edge="1" parent="1" source="Qb6nIVdXhHOiRRNpo8Cw-5">
          <mxGeometry relative="1" as="geometry">
            <mxPoint x="390" y="325" as="targetPoint" />
          </mxGeometry>
        </mxCell>
        <mxCell id="Qb6nIVdXhHOiRRNpo8Cw-9" style="edgeStyle=orthogonalEdgeStyle;rounded=0;orthogonalLoop=1;jettySize=auto;html=1;" edge="1" parent="1" source="Qb6nIVdXhHOiRRNpo8Cw-5">
          <mxGeometry relative="1" as="geometry">
            <mxPoint x="180" y="325" as="targetPoint" />
          </mxGeometry>
        </mxCell>
        <mxCell id="Qb6nIVdXhHOiRRNpo8Cw-5" value="x % 2 == 0&lt;br&gt;?" style="rhombus;whiteSpace=wrap;html=1;" vertex="1" parent="1">
          <mxGeometry x="240" y="280" width="90" height="90" as="geometry" />
        </mxCell>
        <mxCell id="Qb6nIVdXhHOiRRNpo8Cw-11" style="edgeStyle=orthogonalEdgeStyle;rounded=0;orthogonalLoop=1;jettySize=auto;html=1;" edge="1" parent="1" source="Qb6nIVdXhHOiRRNpo8Cw-6">
          <mxGeometry relative="1" as="geometry">
            <mxPoint x="445" y="420" as="targetPoint" />
          </mxGeometry>
        </mxCell>
        <mxCell id="Qb6nIVdXhHOiRRNpo8Cw-6" value="&quot;yes&quot;" style="shape=document;whiteSpace=wrap;html=1;boundedLbl=1;" vertex="1" parent="1">
          <mxGeometry x="400" y="300" width="90" height="60" as="geometry" />
        </mxCell>
        <mxCell id="Qb6nIVdXhHOiRRNpo8Cw-10" style="edgeStyle=orthogonalEdgeStyle;rounded=0;orthogonalLoop=1;jettySize=auto;html=1;" edge="1" parent="1" source="Qb6nIVdXhHOiRRNpo8Cw-7">
          <mxGeometry relative="1" as="geometry">
            <mxPoint x="125" y="420" as="targetPoint" />
          </mxGeometry>
        </mxCell>
        <mxCell id="Qb6nIVdXhHOiRRNpo8Cw-7" value="&quot;no&quot;" style="shape=document;whiteSpace=wrap;html=1;boundedLbl=1;" vertex="1" parent="1">
          <mxGeometry x="80" y="295" width="90" height="60" as="geometry" />
        </mxCell>
        <mxCell id="Qb6nIVdXhHOiRRNpo8Cw-12" value="" style="endArrow=none;html=1;rounded=0;" edge="1" parent="1">
          <mxGeometry width="50" height="50" relative="1" as="geometry">
            <mxPoint x="120" y="430" as="sourcePoint" />
            <mxPoint x="440" y="430" as="targetPoint" />
          </mxGeometry>
        </mxCell>
        <mxCell id="Qb6nIVdXhHOiRRNpo8Cw-13" value="" style="endArrow=classic;html=1;rounded=0;entryX=0.4;entryY=0;entryDx=0;entryDy=0;entryPerimeter=0;" edge="1" parent="1" target="Qb6nIVdXhHOiRRNpo8Cw-2">
          <mxGeometry width="50" height="50" relative="1" as="geometry">
            <mxPoint x="280" y="430" as="sourcePoint" />
            <mxPoint x="450" y="270" as="targetPoint" />
          </mxGeometry>
        </mxCell>
      </root>
    </mxGraphModel>
  </diagram>
</mxfile>
